Coordinates
version=1
nRows=17
nColumns=24
inDegrees=yes

Units are S.I. units (second, meters, Newtons, ...)
Angles are in degrees.

endheader
time	pelvis_tilt	pelvis_list	pelvis_rotation	pelvis_tx	pelvis_ty	pelvis_tz	hip_flexion_r	hip_adduction_r	hip_rotation_r	knee_angle_r	ankle_angle_r	subtalar_angle_r	mtp_angle_r	hip_flexion_l	hip_adduction_l	hip_rotation_l	knee_angle_l	ankle_angle_l	subtalar_angle_l	mtp_angle_l	lumbar_extension	lumbar_bending	lumbar_rotation
      5.39000000	      4.84833997	      3.97069527	     11.98298459	      1.14313222	      0.88969509	     -0.16148334	     19.49932568	     -2.71980540	    -11.34555208	    -12.25666351	     13.59029026	      6.29948724	      0.00000000	    -28.93573102	      4.97921245	      6.79421030	     -8.54131834	     11.27968006	     -4.26632480	      0.00000000	    -29.84131968	      1.44853616	     -8.97438307
      5.40000000	      4.91450741	      3.75869686	     12.06763656	      1.15863973	      0.88823391	     -0.16155493	     20.16332727	     -2.51812590	    -11.17052057	    -15.09893883	     13.46861005	      5.84651540	      0.00000000	    -28.18426130	      4.31920305	      4.53585739	    -11.38301448	     11.30839709	     -0.96539025	      0.00000000	    -29.66126800	      1.88762933	     -9.11899403
      5.41000000	      5.08209469	      3.43603754	     12.10507470	      1.17419873	      0.88718510	     -0.16142423	     20.68658242	     -2.15683071	    -11.04812999	    -17.77875567	     13.60055223	      5.38473149	      0.00000000	    -27.32361205	      3.43339321	      2.23699279	    -14.45202268	     10.83495134	      2.17444445	      0.00000000	    -29.58537145	      2.42494108	     -9.15308243
      5.42000000	      5.37608341	      3.04161824	     12.12849481	      1.18971854	      0.88658798	     -0.16124203	     20.99701546	     -1.68852328	    -11.03656864	    -20.27571557	     14.04984523	      4.96450146	      0.00000000	    -26.42884807	      2.41133922	      0.44200699	    -17.66235708	      9.53306122	      4.49636146	      0.00000000	    -29.65149051	      3.05716278	     -9.12709432
      5.43000000	      5.73616679	      2.60805036	     12.14453355	      1.20513302	      0.88631532	     -0.16102277	     21.12804131	     -1.16031363	    -11.13954722	    -22.59782407	     14.87385867	      4.69394616	      0.00000000	    -25.40070651	      1.32219631	     -0.89906128	    -21.05829231	      7.55131537	      6.15629528	      0.00000000	    -29.79778506	      3.72688928	     -9.07390378
      5.44000000	      6.09779690	      2.15028270	     12.15623050	      1.22038816	      0.88622120	     -0.16075851	     21.09939729	     -0.59401420	    -11.35152018	    -24.69632899	     16.06841323	      4.62115936	      0.00000000	    -24.14453411	      0.21625116	     -1.82633301	    -24.66887940	      5.07526141	      7.31720195	      0.00000000	    -29.94754470	      4.39563962	     -8.98157671
      5.45000000	      6.39322573	      1.66856045	     12.20039580	      1.23539994	      0.88618529	     -0.16045355	     20.93166615	     -0.00488578	    -11.67837018	    -26.48578902	     17.51749428	      4.75537800	      0.00000000	    -22.56373688	     -0.89394994	     -2.37705333	    -28.51664737	      2.35005546	      8.15505072	      0.00000000	    -30.02491893	      5.04949002	     -8.88177063
      5.46000000	      6.56638693	      1.15427913	     12.30929898	      1.25009508	      0.88613150	     -0.16013433	     20.65811187	      0.59972487	    -12.12734621	    -27.89839026	     19.09267705	      5.06438554	      0.00000000	    -20.60246765	     -1.98879761	     -2.54569532	    -32.57057939	     -0.38776678	      8.72157236	      0.00000000	    -29.96527248	      5.69612969	     -8.78845522
      5.47000000	      6.59448149	      0.60182870	     12.50790329	      1.26441167	      0.88604820	     -0.15980604	     20.30679188	      1.22000361	    -12.68655685	    -28.90397108	     20.66203630	      5.48271943	      0.00000000	    -18.25354040	     -3.06323000	     -2.39439608	    -36.77587817	     -2.89355149	      9.06955901	      0.00000000	    -29.74108440	      6.33930594	     -8.74117441
      5.48000000	      6.51617203	     -0.03207311	     12.81174648	      1.27833880	      0.88602121	     -0.15950942	     19.85181233	      1.91378504	    -13.35195642	    -29.47268073	     22.09722178	      5.89228041	      0.00000000	    -15.59013030	     -4.14766867	     -1.96733812	    -41.04459462	     -4.94153541	      9.20225317	      0.00000000	    -29.39127074	      7.04856866	     -8.68697297
      5.49000000	      6.36492901	     -0.72724272	     13.21855022	      1.29189133	      0.88617062	     -0.15928620	     19.28304957	      2.67320087	    -14.09016258	    -29.62687201	     23.34862082	      6.28243495	      0.00000000	    -12.70732223	     -5.19838494	     -1.29986842	    -45.25144522	     -6.39039257	      9.07451054	      0.00000000	    -28.94910324	      7.81807680	     -8.63432739
      5.50000000	      6.19565902	     -1.43341124	     13.68917288	      1.30510790	      0.88662621	     -0.15911212	     18.58353964	      3.46994650	    -14.85584937	    -29.43907169	     24.38966132	      6.61207922	      0.00000000	     -9.73038812	     -6.16342701	     -0.50331616	    -49.27806420	     -7.18493105	      8.62794834	      0.00000000	    -28.49092986	      8.59308229	     -8.59882238
      5.51000000	      6.03593268	     -2.08945081	     14.17001020	      1.31806677	      0.88750816	     -0.15896112	     17.73555396	      4.27976480	    -15.52540167	    -28.95016113	     25.22570428	      6.87679586	      0.00000000	     -6.76798067	     -6.96045029	      0.36035110	    -53.00372350	     -7.34065308	      7.86589202	      0.00000000	    -28.05491092	      9.30333334	     -8.55543539
      5.52000000	      5.92643632	     -2.63395970	     14.61206234	      1.33080324	      0.88890674	     -0.15879068	     16.71799742	      5.05681213	    -16.06044010	    -28.23111686	     25.83615240	      7.00721781	      0.00000000	     -3.92356800	     -7.54441932	      1.19438688	    -56.35378677	     -6.91251971	      6.88129863	      0.00000000	    -27.72215884	      9.88254302	     -8.47696797
      5.53000000	      5.80325294	     -3.02069318	     14.94139814	      1.34342828	      0.89076256	     -0.15851074	     15.59306941	      5.77080743	    -16.30747595	    -27.31628545	     26.29013043	      7.03876537	      0.00000000	     -1.19741391	     -7.85766407	      1.91213576	    -59.26934551	     -5.95699002	      5.76979528	      0.00000000	    -27.41497814	     10.24063449	     -8.36969000
      5.54000000	      5.67627006	     -3.23408780	     15.11681104	      1.35597825	      0.89306937	     -0.15807719	     14.35103505	      6.39831132	    -16.26075224	    -26.23489057	     26.55796657	      6.95270712	      0.00000000	      1.36394792	     -7.91422462	      2.44699185	    -61.72853963	     -4.63346175	      4.66959512	      0.00000000	    -27.17658007	     10.35514987	     -8.18312762
      5.55000000	      5.52023315	     -3.28107529	     15.11187296	      1.36850831	      0.89573880	     -0.15746745	     13.01305058	      6.93134419	    -15.89418879	    -24.99644888	     26.66956707	      6.74703550	      0.00000000	      3.76619878	     -7.74141706	      2.76002460	    -63.72757680	     -3.07481410	      3.67328823	      0.00000000	    -26.97594569	     10.22580452	     -7.89068395
